<svg xmlns="http://www.w3.org/2000/svg" viewBox="0 0 24 24">
  <path
    d="M8.72317 3.06836C9.50282 2.28872 10.7709 2.28872 11.5505 3.06836L20.0326 11.5505C22.3716 13.8894 22.3716 17.6936 20.0326 20.0326C17.6937 22.3715 13.8895 22.3715 11.5505 20.0326L3.06844 11.5505C2.2888 10.7708 2.2888 9.50274 3.06844 8.7231L8.72317 3.06836ZM12.9642 1.65468C11.4028 0.093269 8.8709 0.0932689 7.30949 1.65468L1.65476 7.30941C0.0933456 8.87083 0.0933457 11.4027 1.65476 12.9641L10.1369 21.4462C13.2597 24.5691 18.3235 24.5691 21.4463 21.4462C24.5691 18.3234 24.5691 13.2596 21.4463 10.1368L12.9642 1.65468ZM8.72317 7.30941C8.333 6.91924 7.70037 6.91853 7.30949 7.30941C6.91861 7.7003 6.91931 8.33292 7.30949 8.7231L10.1369 11.5505C10.527 11.9406 11.1597 11.9413 11.5505 11.5505C11.9414 11.1596 11.9407 10.527 11.5505 10.1368L8.72317 7.30941Z" />
</svg>