<svg width="64" height="64" viewBox="0 0 64 64" fill="none" xmlns="http://www.w3.org/2000/svg">
  <path
    d="M41.4362 18.9046C39.5911 17.9196 36.4939 16.672 32.0788 16.672C29.7861 16.8719 27.4715 17.133 25.2255 17.657C18.7676 19.9032 3.55683 31.1696 2.02965 38.9322C4.27016 40.5738 4.65694 40.7404 7.8859 41.0688C10.9172 37.4219 12.6305 35.2903 15.6618 31.9718C15.6618 31.9718 14.4756 31.8757 13.8253 31.6435C13.8253 29.7745 14.1461 22.1574 22.7214 21.9251C22.9813 21.935 23.6538 22.0293 24.4261 22.2197C25.1003 22.3858 25.8506 22.6252 26.4689 22.9454C25.8014 23.6373 24.2857 25.2789 23.6353 25.966C21.7328 28.3629 18.9566 31.6131 17.7791 31.9718C16.9453 32.041 16.4929 32.0309 15.6618 31.9718C12.6305 35.2903 10.9172 37.4219 7.8859 41.0688C19.1457 42.4173 22.4838 43.1323 27.6551 37.2602C30.4887 34.0427 31.8152 31.4465 41.1067 23.6324C44.797 20.9402 42.7322 19.6707 41.4362 18.9046Z"
    fill="#44F29E" />
  <path
    d="M17.7791 31.9718C17.8631 28.6448 18.3326 23.9698 23.6353 25.966C24.2857 25.2789 25.8014 23.6373 26.4689 22.9454C25.8506 22.6252 25.1003 22.3858 24.4261 22.2197C23.6538 22.0293 22.9813 21.935 22.7214 21.9251C14.1461 22.1574 13.8253 29.7745 13.8253 31.6435C14.4756 31.8757 15.6618 31.9718 15.6618 31.9718C16.4929 32.0309 16.9453 32.041 17.7791 31.9718Z"
    fill="#44F29E" />
  <path
    d="M17.7791 31.9718C18.9566 31.6131 21.7328 28.3629 23.6353 25.966C18.3326 23.9698 17.8631 28.6448 17.7791 31.9718Z"
    fill="#44F29E" />
  <path
    d="M40.5 28.5C41.6203 29.091 43.07 30.7983 43.3336 31.5862C39.248 34.7381 38.4656 37.1439 35.8786 35.0427C33.2916 32.9414 40.5 28.5 40.5 28.5Z"
    fill="#44F29E" />
  <path
    d="M51.4122 23.4236C49.9067 21.7649 47.4497 22.7366 43.2323 26.3481C43.7595 26.8078 45.4069 28.121 46 29.5C51.6013 26.2168 52.9937 25.1662 51.4122 23.4236Z"
    fill="#44F29E" />
  <path fill-rule="evenodd" clip-rule="evenodd"
    d="M32.0788 16.672C36.4939 16.672 39.5911 17.9196 41.4362 18.9046C42.7322 19.6707 44.797 20.9402 41.1067 23.6324C31.8152 31.4465 30.4887 34.0427 27.6551 37.2602C22.4838 43.1323 19.1457 42.4173 7.8859 41.0688C4.65694 40.7404 4.27016 40.5738 2.02965 38.9322C1.55977 43.3014 6.71328 47.0588 14.7478 48.0596C29.521 50.2139 34.0411 48.3214 39.929 45.8563C58.7586 37.9727 65.2614 39.937 62.3256 33.0224C60.8759 29.6079 57.9764 25.4053 53.2977 21.0058C49.6096 17.5378 38.5367 11.4845 25.2255 17.657C27.4715 17.133 29.7861 16.8719 32.0788 16.672ZM43.2323 26.3481C47.4497 22.7366 49.9067 21.7649 51.4122 23.4236C52.9937 25.1662 51.6013 26.2168 46 29.5C45.4069 28.121 43.7595 26.8078 43.2323 26.3481ZM43.3336 31.5862C43.07 30.7983 41.6203 29.091 40.5 28.5C40.5 28.5 33.2916 32.9414 35.8786 35.0427C38.4656 37.1439 39.248 34.7381 43.3336 31.5862Z"
    fill="#44F29E" />
  <path
    d="M7.8859 41.0688C19.1457 42.4173 22.4838 43.1323 27.6551 37.2602C30.4887 34.0427 31.8152 31.4465 41.1067 23.6324C44.797 20.9402 42.7322 19.6707 41.4362 18.9046C39.5911 17.9196 36.4939 16.672 32.0788 16.672C29.7861 16.8719 27.4715 17.133 25.2255 17.657M7.8859 41.0688C4.65694 40.7404 4.27016 40.5738 2.02965 38.9322M7.8859 41.0688C10.9172 37.4219 12.6305 35.2903 15.6618 31.9718M15.6618 31.9718C15.6618 31.9718 14.4756 31.8757 13.8253 31.6435C13.8253 29.7745 14.1461 22.1574 22.7214 21.9251C22.9813 21.935 23.6538 22.0293 24.4261 22.2197M15.6618 31.9718C16.4929 32.0309 16.9453 32.041 17.7791 31.9718M17.7791 31.9718C18.9566 31.6131 21.7328 28.3629 23.6353 25.966M17.7791 31.9718C17.8631 28.6448 18.3326 23.9698 23.6353 25.966M23.6353 25.966C24.2857 25.2789 25.8014 23.6373 26.4689 22.9454C25.8506 22.6252 25.1003 22.3858 24.4261 22.2197M2.02965 38.9322C3.55683 31.1696 18.7676 19.9032 25.2255 17.657M2.02965 38.9322C1.55977 43.3014 6.71328 47.0588 14.7478 48.0596C29.521 50.2139 34.0411 48.3214 39.929 45.8563C58.7586 37.9727 65.2614 39.937 62.3256 33.0224C60.8759 29.6079 57.9764 25.4053 53.2977 21.0058C49.6096 17.5378 38.5367 11.4845 25.2255 17.657M32.0788 16.7729L24.4261 22.2197M51.4122 23.4236C49.9067 21.7649 47.4497 22.7366 43.2323 26.3481C43.7595 26.8078 45.4069 28.121 46 29.5C51.6013 26.2168 52.9937 25.1662 51.4122 23.4236ZM40.5 28.5C41.6203 29.091 43.07 30.7983 43.3336 31.5862C39.248 34.7381 38.4656 37.1439 35.8786 35.0427C33.2916 32.9414 40.5 28.5 40.5 28.5Z"
    stroke="black" stroke-width="2" />
</svg>