<svg viewBox="0 0 557 366" fill="none" xmlns="http://www.w3.org/2000/svg">
  <path
    d="M94 261.5C179.435 271.769 204.762 277.213 244 232.5C265.5 208 275.565 188.231 346.065 128.731C374.065 108.231 358.399 98.5646 348.565 92.7313C334.565 85.2313 311.065 75.7313 277.565 75.7313C260.169 77.2538 242.607 79.2413 225.565 83.2313M94 261.5C69.5 259 66.5653 257.731 49.5653 245.231M94 261.5C117 233.731 130 217.5 153 192.231M153 192.231C153 192.231 144 191.5 139.065 189.731C139.065 175.5 141.5 117.5 206.565 115.731C208.538 115.806 213.64 116.525 219.5 117.974M153 192.231C159.306 192.682 162.739 192.759 169.065 192.231M169.065 192.231C178 189.5 199.065 164.752 213.5 146.5M169.065 192.231C169.703 166.898 173.265 131.3 213.5 146.5M213.5 146.5C218.435 141.269 229.935 128.769 235 123.5C230.309 121.062 224.616 119.239 219.5 117.974M49.5653 245.231C61.1528 186.123 176.565 100.335 225.565 83.2313M49.5653 245.231C46 278.5 85.1027 307.111 146.065 314.731C258.158 331.135 292.454 316.725 337.129 297.955C480 237.925 529.341 252.882 507.065 200.231C496.065 174.231 474.065 142.231 438.565 108.731C410.582 82.3242 326.565 36.2313 225.565 83.2313M277.565 76.5L219.5 117.974M426.565 123.231C415.143 110.601 396.5 118 364.5 145.5C368.5 149 381 159 385.5 169.5C428 144.5 438.565 136.5 426.565 123.231ZM353.5 153.5C362 158 373 171 375 177C344 201 333.129 224 313.5 208C293.871 192 353.5 153.5 353.5 153.5Z"
    stroke="#854bfa" stroke-width="3" />
</svg>